<svg xmlns="http://www.w3.org/2000/svg" viewBox="0 0 321.1 121.94"><defs><style>.cls-1,.cls-2{fill:#1a2e5a;}.cls-2{fill-rule:evenodd;}</style></defs><title>Asset 3</title><g id="Layer_2" data-name="Layer 2"><g id="Layer_2-2" data-name="Layer 2"><path class="cls-1" d="M211.57,33l25.36,67.83H221.45l-5.13-15.1H191l-5.32,15.1h-15L196.27,33Zm.85,41.61-8.55-24.89h-.19l-8.83,24.89Z"/><path class="cls-1" d="M273.41,33a28.34,28.34,0,0,1,10.83,1.85,20.29,20.29,0,0,1,7.27,4.9,18.67,18.67,0,0,1,4.08,6.93,25.76,25.76,0,0,1,0,16.1,18.67,18.67,0,0,1-4.08,7,20.4,20.4,0,0,1-7.27,4.89,28.34,28.34,0,0,1-10.83,1.85H257.74v24.32H242.82V33Zm-4.08,31.92a30.53,30.53,0,0,0,4.94-.38A11.47,11.47,0,0,0,278.45,63a8,8,0,0,0,2.89-3.09,10.82,10.82,0,0,0,1.1-5.22,10.83,10.83,0,0,0-1.1-5.23,8,8,0,0,0-2.89-3.09,11.85,11.85,0,0,0-4.18-1.47,31.7,31.7,0,0,0-4.94-.38H257.74V64.87Z"/><path class="cls-1" d="M321.1,33v67.83H306.19V33Z"/><path class="cls-2" d="M11.69,8.44C3.58,7.68-1.33,14,.32,22.55,2.29,32.82,14.56,43.93,25,40.2c4.21-1.51,6.55-6.9,5.88-12.55C29.83,18.6,20.56,9.27,11.69,8.44Z"/><path class="cls-2" d="M33.91,27.84c-.67,5.65,1.67,11,5.89,12.54C50.25,44.12,62.52,33,64.5,22.74c1.65-8.57-3.27-14.88-11.37-14.11C44.25,9.46,35,18.79,33.91,27.84ZM2.55,112.53c9.21,2.68,17.53,6.25,26.27,9.41V51.36C20.18,48,11.21,44.92,2.55,41.56Zm66.65-.39c9.13,3.57,17.54,6.56,26.27,9.8V51.36c-8.75-3.27-17.62-6.42-26.27-9.8ZM35.87,51.36c.07,23.72-.31,47.89.79,70.58,8.3-3.6,17.33-6.46,25.88-9.8V42h-.79C53,45,44.76,48.49,35.87,51.36Z"/><path class="cls-2" d="M137.42,0V23.92c-10-3.89-10.09,7.9-9.41,17.25,2.53,0,6.64-1.72,9.41-2.75V60c-3.22,1.22-7.19,1.7-9.41,3.92v48.62c-8.48,3.14-18,7.37-26.27,9.41V76.85c0-15.76-1.36-31.85,0-45.48C103.6,12.8,119,1.16,137.42,0Z"/><path class="cls-2" d="M53.13,8.63c8.1-.77,13,5.54,11.37,14.11C62.52,33,50.25,44.12,39.8,40.38c-4.22-1.5-6.56-6.89-5.89-12.54C35,18.79,44.25,9.46,53.13,8.63Z"/><path class="cls-2" d="M2.55,41.56c8.66,3.36,17.63,6.42,26.27,9.8v70.58c-8.74-3.16-17.06-6.73-26.27-9.41Z"/><path class="cls-2" d="M69.2,41.56c8.65,3.38,17.52,6.53,26.27,9.8v70.58c-8.73-3.24-17.14-6.23-26.27-9.8Z"/><path class="cls-2" d="M61.75,42h.79v70.19c-8.55,3.34-17.58,6.2-25.88,9.8-1.1-22.69-.72-46.86-.79-70.58C44.76,48.49,53,45,61.75,42Z"/><path class="cls-2" d="M78.75,8.44c-8.11-.76-13,5.54-11.37,14.11,2,10.27,14.24,21.38,24.7,17.65,4.22-1.51,6.55-6.9,5.88-12.55C96.89,18.6,87.62,9.27,78.75,8.44Z"/></g></g></svg>